<?xml version="1.0" standalone="no"?><!-- Generator: Gravit.io --><svg xmlns="http://www.w3.org/2000/svg" xmlns:xlink="http://www.w3.org/1999/xlink" style="isolation:isolate" viewBox="0 0 401 250" width="401" height="250"><defs><clipPath id="_clipPath_Tkok4dI4rxw7X1CQJhPorgE9NR5p3PRt"><rect width="401" height="250"/></clipPath></defs><g clip-path="url(#_clipPath_Tkok4dI4rxw7X1CQJhPorgE9NR5p3PRt)"><circle vector-effect="non-scaling-stroke" cx="199.97758741320717" cy="102.14224253992354" r="100" fill="rgb(255,255,255)" stroke-width="1" stroke="rgb(47,105,140)" stroke-linejoin="miter" stroke-linecap="square" stroke-miterlimit="3"/><path d=" M 353.198 220.962 C 354.067 209.878 356.675 197.49 355.588 186.406 C 354.719 177.495 348.851 178.799 341.244 178.365 C 316.033 177.061 291.04 174.453 265.829 172.931 C 219.102 169.889 172.592 167.715 125.865 169.019 C 100.437 169.671 75.008 171.193 49.58 173.801 C 48.711 173.801 48.276 174.235 48.059 174.887 C 48.059 175.105 47.842 175.322 48.059 175.757 C 48.928 190.101 49.146 204.662 50.015 219.006 C 50.015 220.093 50.884 221.18 52.188 221.18 C 75.008 222.049 98.046 223.136 121.084 223.136 C 133.254 223.136 145.208 221.832 157.379 220.962 C 169.767 220.31 182.372 220.528 194.978 220.962 C 220.623 222.049 246.269 224.005 271.914 224.222 C 298.212 224.44 324.727 223.788 351.024 222.918 C 352.111 222.918 352.98 222.266 353.198 220.962 L 353.198 220.962 Z " fill="rgb(255,255,255)" vector-effect="non-scaling-stroke" stroke-width="1" stroke="rgb(45,105,140)" stroke-linejoin="miter" stroke-linecap="butt" stroke-miterlimit="4"/><path d=" M 400.577 198.142 C 401.011 196.838 399.925 195.317 398.621 195.317 C 390.362 195.534 382.755 194.23 374.497 192.709 C 369.498 191.84 365.151 191.84 360.37 194.013 C 358.848 194.665 359.066 196.186 359.718 197.056 C 359.283 206.618 358.414 215.964 357.327 225.309 C 349.286 225.744 341.027 226.179 332.986 226.613 C 331.682 226.613 331.029 227.483 330.812 228.787 C 330.377 232.264 329.943 235.741 330.16 239.219 C 330.16 240.305 331.029 241.392 332.334 241.392 C 354.502 240.523 376.67 248.129 398.403 240.74 C 399.707 240.305 400.577 239.001 399.707 237.697 C 395.795 230.091 390.797 223.353 384.494 217.485 C 391.883 213.356 397.317 206.618 400.577 198.142 L 400.577 198.142 Z " fill="rgb(255,255,255)" vector-effect="non-scaling-stroke" stroke-width="1" stroke="rgb(47,105,140)" stroke-linejoin="miter" stroke-linecap="butt" stroke-miterlimit="4"/><path d=" M 73.9 229.14 C 66.945 228.27 60.425 230.009 53.47 230.444 C 50.427 230.661 46.733 231.53 45.429 228.922 C 44.777 227.618 44.994 225.01 44.777 223.706 C 43.69 214.143 43.255 204.146 41.082 194.801 C 40.865 193.497 39.561 193.062 38.474 193.279 L 37.605 193.279 C 28.694 194.366 19.783 195.453 10.872 196.322 C 7.612 196.539 0.223 196.539 0.006 201.755 C -0.212 205.885 5.874 208.493 8.699 210.666 C 11.742 213.057 14.784 216.317 18.479 218.055 C 13.48 224.358 7.612 229.792 1.962 235.442 C 0.658 236.964 1.527 238.92 3.266 239.137 C 26.955 242.397 50.862 245.44 74.334 239.789 C 75.204 239.572 75.856 238.702 76.073 237.833 C 76.073 235.66 76.29 233.486 76.29 231.313 C 76.073 230.009 75.204 229.357 73.9 229.14 L 73.9 229.14 Z " fill="rgb(255,255,255)" vector-effect="non-scaling-stroke" stroke-width="1" stroke="rgb(47,105,140)" stroke-linejoin="miter" stroke-linecap="butt" stroke-miterlimit="4"/><g><clipPath id="_clipPath_qtLbgDAYqP07ImLhzw6pUrKcbNrYxmrO"><path d=" M 99.978 11.142 L 99.978 224.265 L 299.978 224.265 L 299.978 11.142 L 99.978 11.142 Z " fill="rgb(255,255,255)"/></clipPath><g clip-path="url(#_clipPath_qtLbgDAYqP07ImLhzw6pUrKcbNrYxmrO)"><g><path d=" M 200.806 135.786 C 224.678 135.786 246.93 138.637 264.01 143.675 C 251.052 136.73 227.598 132.088 200.806 132.088 C 174.015 132.088 150.561 136.73 137.603 143.675 C 154.682 138.637 176.934 135.786 200.806 135.786 Z " fill="rgb(47,105,140)"/></g></g><clipPath id="_clipPath_lNOpo3CVWj1LBqte7M7RUhuJNOn8BJPs"><path d=" M 99.978 11.142 L 99.978 224.265 L 299.978 224.265 L 299.978 11.142 L 99.978 11.142 Z " fill="rgb(255,255,255)"/></clipPath><g clip-path="url(#_clipPath_lNOpo3CVWj1LBqte7M7RUhuJNOn8BJPs)"><g><path d=" M 200.806 144.737 C 232.396 144.737 260.953 148.014 281.45 153.293 C 265.05 144.372 235.073 138.398 200.806 138.398 C 166.541 138.398 136.563 144.372 120.162 153.293 C 140.659 148.014 169.218 144.737 200.806 144.737 Z " fill="rgb(96,199,208)"/></g></g><clipPath id="_clipPath_GEBo2xrWqJKH6IsMOiz2y63ZXWkjKCvo"><path d=" M 99.978 11.142 L 99.978 224.265 L 299.978 224.265 L 299.978 11.142 L 99.978 11.142 Z " fill="rgb(255,255,255)"/></clipPath><g clip-path="url(#_clipPath_GEBo2xrWqJKH6IsMOiz2y63ZXWkjKCvo)"><g><path d=" M 165.415 100.414 C 161.383 100.522 157.457 100.367 153.693 99.958 L 153.693 134.876 C 164.241 132.086 176.92 130.28 190.557 129.675 C 186.911 122.69 178.774 109.159 176.712 105.932 C 174.461 102.41 174.332 103.09 172.552 101.895 C 170.771 100.704 168.063 101.029 165.371 97.665 C 162.679 94.302 158.515 85.004 154.223 76.135 C 149.931 67.265 150.918 68.794 151.61 69.954 C 152.302 71.116 164.442 91.748 165.258 92.734 C 166.076 93.72 167.369 92.43 166.957 91.481 C 166.544 90.531 166.181 89.795 163.784 85.129 C 161.385 80.463 154.273 66.987 154.519 66.887 C 154.766 66.79 168.005 89.329 168.67 90.384 C 169.271 91.332 169.768 90.77 169.92 90.658 L 169.943 90.641 C 170.092 90.531 170.739 90.249 170.186 89.265 C 169.574 88.17 156.071 65.827 156.248 65.613 C 156.426 65.399 164.811 77.936 167.741 82.209 C 170.671 86.483 171.138 87.141 171.762 87.935 C 172.387 88.727 173.959 87.904 173.461 86.682 C 172.962 85.461 160.611 64.986 159.918 63.824 C 159.226 62.663 158.346 61.056 164.018 68.907 C 169.688 76.759 175.763 84.648 177.499 88.716 C 179.236 92.786 177.911 95.435 178.206 97.723 C 178.501 100.014 177.887 99.882 179.926 103.561 C 181.965 107.238 191.355 123.129 195.292 128.582 C 195.456 128.809 195.629 129.046 195.8 129.28 C 196.184 121.128 196.466 110.746 196.558 107 C 196.689 101.634 197.997 94.817 194.334 92.353 C 190.673 89.888 185.835 84.52 187.274 73.642 C 188.713 62.765 193.463 57.98 195.141 56.262 C 196.542 54.832 198.013 54.778 198.465 54.8 C 198.916 54.778 200.388 54.832 201.786 56.262 C 203.465 57.98 208.217 62.765 209.654 73.642 C 211.094 84.52 206.256 89.888 202.593 92.353 C 198.932 94.817 200.239 101.634 200.37 107 C 200.461 110.737 200.743 121.078 201.126 129.221 C 205.296 123.003 206.451 121.383 207.485 119.505 C 208.836 117.052 211.302 110.661 212.663 107.406 C 214.023 104.151 219.482 93.772 224.568 85.445 C 229.651 77.12 233.785 72.02 236.707 69.864 C 236.707 69.864 240.21 67.679 241.619 67.758 C 243.029 67.838 244.901 68.483 243.298 71.562 C 241.695 74.638 222.187 109.598 220.958 111.532 C 219.728 113.466 216.176 118.56 214.316 121.25 C 212.905 123.29 211.886 124.574 209.335 129.606 C 222.462 130.089 234.756 131.679 245.19 134.187 L 245.19 90.009 C 260.696 86.115 271.807 75.61 271.807 63.261 C 271.807 47.596 253.931 34.898 231.881 34.898 C 214.227 34.898 199.252 43.037 193.981 54.322 C 195.865 48.973 199.715 43.947 204.984 39.799 C 197.166 37.241 188.191 35.784 178.646 35.784 C 148.328 35.784 123.749 50.467 123.749 68.579 C 123.749 83.967 141.488 96.876 165.415 100.414 Z " fill="rgb(96,199,208)"/></g></g></g></g></svg>