<?xml version="1.0" standalone="no"?><!-- Generator: Gravit.io --><svg xmlns="http://www.w3.org/2000/svg" xmlns:xlink="http://www.w3.org/1999/xlink" style="isolation:isolate" viewBox="0 0 1134.86 1134.86" width="1134.86" height="1134.86"><clipPath id="_clipPath_L3ZwtMFY93B6elnxnO95WSfK44fIWszz"><path d=" M 0 0 L 0 1134.86 L 1134.86 1134.86 L 1134.86 0 L 0 0 Z " fill="rgb(255,255,255)"/></clipPath><g clip-path="url(#_clipPath_L3ZwtMFY93B6elnxnO95WSfK44fIWszz)"><path d=" M 572.128 663.719 C 707.587 663.719 833.85 678.898 930.771 705.728 C 857.241 668.745 724.157 644.027 572.128 644.027 C 420.11 644.027 287.025 668.745 213.499 705.728 C 310.41 678.898 436.673 663.719 572.128 663.719 Z " fill="rgb(47,105,140)"/></g><clipPath id="_clipPath_BuJ7Kb4E0fJjoxOBTgDLnNg0OItTIaqb"><path d=" M 0 0 L 0 1134.86 L 1134.86 1134.86 L 1134.86 0 L 0 0 Z " fill="rgb(255,255,255)"/></clipPath><g clip-path="url(#_clipPath_BuJ7Kb4E0fJjoxOBTgDLnNg0OItTIaqb)"><path d=" M 572.133 711.384 C 751.38 711.384 913.425 728.832 1029.73 756.943 C 936.669 709.438 766.574 677.628 572.133 677.628 C 377.698 677.628 207.596 709.438 114.531 756.943 C 230.837 728.832 392.891 711.384 572.133 711.384 Z " fill="rgb(96,199,208)"/></g><clipPath id="_clipPath_McmuZ4z1ZBJYS0Ub76Y3OAY82zG9Z3kb"><path d=" M 0 0 L 0 1134.86 L 1134.86 1134.86 L 1134.86 0 L 0 0 Z " fill="rgb(255,255,255)"/></clipPath><g clip-path="url(#_clipPath_McmuZ4z1ZBJYS0Ub76Y3OAY82zG9Z3kb)"><path d=" M 371.311 475.363 C 348.433 475.94 326.156 475.115 304.796 472.939 L 304.796 658.872 C 364.652 644.016 436.592 634.4 513.976 631.177 C 493.289 593.984 447.113 521.93 435.416 504.749 C 422.643 485.995 421.911 489.613 411.81 483.253 C 401.702 476.907 386.336 478.64 371.063 460.728 C 355.785 442.821 332.159 393.307 307.805 346.082 C 283.45 298.851 289.05 306.989 292.979 313.168 C 296.903 319.355 365.791 429.219 370.423 434.469 C 375.061 439.721 382.401 432.85 380.06 427.798 C 377.715 422.739 375.658 418.818 362.059 393.976 C 348.445 369.127 308.091 297.367 309.487 296.838 C 310.887 296.32 386.006 416.337 389.782 421.955 C 393.191 427.005 396.011 424.01 396.877 423.413 L 397.003 423.327 C 397.851 422.739 401.523 421.236 398.385 415.998 C 394.911 410.169 318.291 291.194 319.296 290.052 C 320.307 288.912 367.886 355.669 384.509 378.425 C 401.133 401.185 403.787 404.688 407.329 408.913 C 410.871 413.133 419.791 408.75 416.965 402.242 C 414.138 395.739 344.053 286.714 340.121 280.527 C 336.195 274.343 331.201 265.788 363.383 307.591 C 395.559 349.406 430.031 391.415 439.879 413.073 C 449.735 434.744 442.219 448.85 443.894 461.037 C 445.568 473.233 442.081 472.532 453.651 492.123 C 465.223 511.705 518.504 596.321 540.845 625.36 C 541.775 626.568 542.756 627.827 543.727 629.073 C 545.906 585.668 547.507 530.381 548.025 510.436 C 548.767 481.859 556.192 445.564 535.409 432.441 C 514.633 419.313 487.18 390.733 495.348 332.808 C 503.509 274.885 530.464 249.405 539.987 240.261 C 547.937 232.643 556.283 232.358 558.848 232.473 C 561.404 232.358 569.757 232.643 577.69 240.261 C 587.219 249.405 614.184 274.885 622.336 332.808 C 630.508 390.733 603.053 419.313 582.271 432.441 C 561.498 445.564 568.911 481.859 569.654 510.436 C 570.174 530.332 571.771 585.401 573.945 628.762 C 597.61 595.652 604.16 587.023 610.029 577.022 C 617.697 563.962 631.69 529.927 639.41 512.597 C 647.13 495.262 678.106 439.999 706.964 395.659 C 735.808 351.325 759.265 324.168 775.841 312.69 C 775.841 312.69 795.719 301.055 803.717 301.477 C 811.714 301.901 822.341 305.333 813.245 321.728 C 804.149 338.109 693.455 524.267 686.479 534.565 C 679.502 544.864 659.346 571.99 648.79 586.314 C 640.786 597.179 635.004 604.014 620.527 630.81 C 695.012 633.383 764.771 641.847 823.976 655.206 L 823.976 419.957 C 911.965 399.225 975.01 343.288 975.01 277.529 C 975.01 194.116 873.579 126.495 748.457 126.495 C 648.286 126.495 563.313 169.839 533.403 229.93 C 544.096 201.445 565.939 174.684 595.84 152.597 C 551.474 138.973 500.549 131.214 446.391 131.214 C 274.352 131.214 134.884 209.401 134.884 305.847 C 134.884 387.785 235.543 456.526 371.311 475.363 Z " fill="rgb(96,199,208)"/></g></svg>